<svg xmlns="http://www.w3.org/2000/svg" viewBox="0 0 600 450"><path fill="#dce0d0" d="M0 0h600v450H0z"/><path fill="#eaeadd" d="M0 0h600v160H0z"/><path d="M320 0h15v160m90-160h15v160m-118-90h250" stroke="#c9d0bb" stroke-width="4"/><path d="m0 340 600-130m-600 205 600-130" stroke="#c3cab5"/><path d="m45 250 280-70 72 40-285 76z" fill="#92a083"/><path d="m95 319 282-72 72 41-285 74z" fill="#667c60"/><path d="m143 391 290-78 79 43-295 79z" fill="#b2bca3"/><path d="m114 294 282-74m-231 142 284-74m-231 147 291-79" stroke="#4f684d" stroke-opacity=".25" stroke-width="3"/><circle cx="412" cy="180" r="23" fill="#c3b18f"/><path d="m394 164 10-5" stroke="#e5d6b7" stroke-width="3"/><path d="M64 58v48m-24-24h48" stroke="#849578"/><text x="40" y="405" fill="#475c40" font-size="10" letter-spacing="3" font-family="Arial,sans-serif">BETTER, TOGETHER</text></svg>
